<svg xmlns="http://www.w3.org/2000/svg" width="736px" height="849px" viewBox="0 0 736 849">
    <path id="hex_inside" fill="#d4d4e4" d="M725.944,632.073L368.238,838.592L10.5312,632.073L10.5312,218.927L368.238,12.4078L725.944,218.927Z" stroke="#a625ca"/>
    <path id="hex_outside" fill="#c5dcdc" d="M428.538,35.05L706.338,195.45L735.638,212.35L735.638,636.65L706.338,653.55L425.138,815.95L368.238,848.75L311.338,815.95L30.1376,653.55L0.837612,636.65L0.837612,212.35L30.1376,195.45L307.938,35.05L368.238,0.25ZM368.238,838.592L725.944,632.073L725.944,218.927L368.238,12.4078L10.5312,218.927L10.5312,632.073Z" stroke="none" fill-rule="evenodd"/>
    <path d="M0,0Z" stroke="#000000" fill="none" stroke-linecap="square" transform="translate(129.5,494.948)"/>
    <path fill="#2040d7" stroke="none" d="M-249.988,-14.1816C-239.292,-14.1816,-230.113,-18.0117,-222.453,-25.6719C-214.655,-33.5391,-210.756,-42.9935,-210.756,-54.0352C-210.756,-65.0768,-214.62,-74.4622,-222.35,-82.1914C-230.079,-89.9206,-239.292,-93.7852,-249.988,-93.7852C-260.685,-93.7852,-269.898,-89.9896,-277.627,-82.3984C-285.425,-74.5312,-289.324,-65.0768,-289.324,-54.0352C-289.324,-42.9935,-285.46,-33.6081,-277.73,-25.8789C-269.932,-18.0807,-260.685,-14.1816,-249.988,-14.1816ZM-249.988,-107.967C-234.875,-107.967,-222.005,-102.653,-211.377,-92.0254C-200.818,-81.5358,-195.539,-68.8724,-195.539,-54.0352C-195.539,-39.1979,-200.853,-26.4655,-211.48,-15.8379C-222.039,-5.2793,-234.875,0,-249.988,0C-265.171,0,-278.041,-5.2793,-288.6,-15.8379C-299.227,-26.4655,-304.541,-39.1979,-304.541,-54.0352C-304.541,-68.8724,-299.262,-81.5358,-288.703,-92.0254C-278.076,-102.653,-265.171,-107.967,-249.988,-107.967ZM-21.0117,0L-36.2285,0L-36.2285,-65.8359C-36.2285,-71.9779,-37.9193,-77.3952,-41.3008,-82.0879C-44.4753,-86.3665,-48.6159,-89.541,-53.7227,-91.6113C-57.5182,-93.1296,-61.3828,-93.8887,-65.3164,-93.8887C-66.6276,-93.8887,-67.9733,-93.7852,-69.3535,-93.5781C-75.0124,-92.819,-80.0501,-90.6452,-84.4668,-87.0566C-90.6087,-82.0189,-93.6797,-74.9453,-93.6797,-65.8359L-93.6797,0L-108.793,0L-108.793,-65.8359C-108.793,-74.9453,-111.864,-82.0189,-118.006,-87.0566C-122.423,-90.5762,-127.46,-92.7155,-133.119,-93.4746C-134.637,-93.6816,-136.087,-93.7852,-137.467,-93.7852C-141.331,-93.7852,-145.127,-93.0605,-148.854,-91.6113C-153.96,-89.541,-158.101,-86.401,-161.275,-82.1914C-164.657,-77.4297,-166.348,-71.9779,-166.348,-65.8359L-166.348,0L-181.564,0L-181.564,-65.8359C-181.564,-75.7044,-178.493,-84.2962,-172.352,-91.6113C-166.693,-98.5124,-159.24,-103.309,-149.992,-106C-145.507,-107.311,-141.021,-107.967,-136.535,-107.967C-132.049,-107.967,-127.598,-107.311,-123.182,-106C-113.796,-103.102,-106.516,-97.8568,-101.34,-90.2656C-96.0951,-97.8568,-88.7799,-103.102,-79.3945,-106C-74.9089,-107.311,-70.4577,-107.967,-66.041,-107.967C-61.5553,-107.967,-57.0697,-107.311,-52.584,-106C-43.3366,-103.309,-35.8835,-98.5124,-30.2246,-91.6113C-24.0827,-84.2962,-21.0117,-75.7044,-21.0117,-65.8359ZM-9.11133,0L-9.11133,-14.1816L40.2656,-14.1816C45.6484,-14.1816,50.4447,-15.6654,54.6543,-18.6328C59.14,-21.8763,61.3828,-25.8444,61.3828,-30.5371C61.3828,-36.8861,58.2773,-42.1309,52.0664,-46.2715C47.5807,-49.2389,39.2995,-52.724,27.2227,-56.7266C15.4909,-60.5221,7.31315,-63.9382,2.68945,-66.9746C-5.17773,-72.1504,-9.11133,-78.7409,-9.11133,-86.7461C-9.11133,-100.893,-0.485026,-107.967,16.7676,-107.967L67.0762,-107.967L67.0762,-93.7852L16.7676,-93.7852C11.5228,-93.7852,8.10677,-93.1296,6.51953,-91.8184C5.55339,-90.9902,5.07031,-89.2995,5.07031,-86.7461C5.07031,-83.4336,7.48568,-80.3971,12.3164,-77.6367C15.8359,-75.7044,22.2884,-73.2201,31.6738,-70.1836C45.4759,-65.6289,55.2409,-61.3503,60.9688,-57.3477C70.6992,-50.5846,75.5645,-41.6478,75.5645,-30.5371C75.5645,-21.5658,71.8034,-14.1126,64.2812,-8.17773C57.3112,-2.72591,49.306,0,40.2656,0ZM135.295,-17.1836C136.33,-18.5638,140.333,-28.1908,147.303,-46.0645L171.422,-107.967L186.742,-107.967L157.758,-33.8496C149.408,-12.7324,142.092,-1.51823,135.812,-0.207031C135.122,-0.0690104,134.398,0,133.639,0C132.811,0,132.051,-0.0690104,131.361,-0.207031C127.221,-1.10417,123.253,-4.89974,119.457,-11.5938C116.559,-16.7005,112.418,-26.1204,107.035,-39.8535L80.2246,-107.967L95.6484,-107.967L122.148,-40.1641C127.738,-26.0859,131.085,-18.3913,132.189,-17.0801C132.673,-16.459,133.156,-16.1484,133.639,-16.1484C134.191,-16.1484,134.743,-16.4935,135.295,-17.1836ZM217.17,16.666C225.037,24.9473,234.975,29.0879,246.982,29.0879C258.645,29.0879,268.376,25.1888,276.174,17.3906C283.903,9.59245,287.768,0.207031,287.768,-10.7656L287.768,-54.0352C287.768,-64.9388,283.903,-74.3242,276.174,-82.1914C268.376,-89.9206,258.99,-93.7852,248.018,-93.7852C237.045,-93.7852,227.66,-89.9206,219.861,-82.1914C212.063,-74.3932,208.164,-65.0078,208.164,-54.0352C208.164,-43.0625,212.063,-33.6771,219.861,-25.8789C227.729,-18.0807,237.114,-14.1816,248.018,-14.1816C260.577,-14.7337,271.447,-19.1849,280.625,-27.5352L280.625,-10.6621C273.379,-3.83008,262.51,-0.276042,248.018,0C233.111,0,220.379,-5.2793,209.82,-15.8379C199.262,-26.3965,193.982,-39.1289,193.982,-54.0352C193.982,-68.9414,199.262,-81.6738,209.82,-92.2324C220.379,-102.722,233.111,-107.967,248.018,-107.967C262.855,-107.967,275.553,-102.722,286.111,-92.2324C296.67,-81.6738,301.949,-68.9414,301.949,-54.0352L301.949,-10.7656C301.949,4.14062,296.67,16.873,286.111,27.4316C275.553,37.9902,262.51,43.2695,246.982,43.2695C235.527,43.2695,225.589,40.5436,217.17,35.0918Z" transform="translate(368.238,485.135)"/>
</svg>
