<?xml version="1.0" encoding="UTF-8"?>
<svg width="735px" height="849px" viewBox="0 0 735 849" version="1.1" xmlns="http://www.w3.org/2000/svg" xmlns:xlink="http://www.w3.org/1999/xlink">
    <defs>
        <linearGradient x1="50%" y1="0%" x2="50%" y2="100%" id="linearGradient-1">
            <stop stop-color="#FAD961" offset="0%"></stop>
            <stop stop-color="#F76B1C" offset="100%"></stop>
        </linearGradient>
        <path d="M117.41238,470.70341 C128.10838,470.70341 137.28738,466.87331 144.94739,459.21311 C152.74539,451.345909 156.64439,441.89151 156.64439,430.849812 C156.64439,419.808213 152.78039,410.422814 145.05038,402.693611 C137.3214,394.964409 128.10838,391.099808 117.41238,391.099808 C106.71539,391.099808 97.50238,394.895409 89.77338,402.486611 C81.9754,410.353813 78.07638,419.808213 78.07638,430.849812 C78.07638,441.89151 81.9404,451.276909 89.67038,459.006109 C97.46838,466.80431 106.71539,470.70341 117.41238,470.70341 Z M117.41238,376.918007 C132.52539,376.918007 145.39539,382.23201 156.02339,392.859612 C166.5824,403.349213 171.86139,416.012612 171.86139,430.849812 C171.86139,445.687111 166.54739,458.41951 155.92039,469.04711 C145.36139,479.60571 132.52539,484.88501 117.41238,484.88501 C102.2294,484.88501 89.3594,479.60571 78.80038,469.04711 C68.1734,458.41951 62.8594,445.687111 62.8594,430.849812 C62.8594,416.012612 68.1384,403.349213 78.69739,392.859612 C89.3244,382.23201 102.2294,376.918007 117.41238,376.918007 Z M346.38869,484.88501 L331.17189,484.88501 L331.17189,419.049111 C331.17189,412.907112 329.48109,407.489807 326.09959,402.797112 C322.92509,398.518509 318.784492,395.34401 313.677692,393.273712 C309.88219,391.755409 306.017589,390.996308 302.083991,390.996308 C300.772788,390.996308 299.427093,391.099808 298.04689,391.306908 C292.387992,392.06601 287.350288,394.239807 282.933593,397.828408 C276.791686,402.866112 273.720687,409.939713 273.720687,419.049111 L273.720687,484.88501 L258.607391,484.88501 L258.607391,419.049111 C258.607391,409.939713 255.536392,402.866112 249.394393,397.828408 C244.977393,394.308808 239.940391,392.16951 234.281387,391.410408 C232.763397,391.203408 231.313384,391.099808 229.933395,391.099808 C226.069396,391.099808 222.273391,391.824509 218.546386,393.273712 C213.440383,395.34401 209.299392,398.484009 206.125396,402.693611 C202.743392,407.455307 201.052383,412.907112 201.052383,419.049111 L201.052383,484.88501 L185.83639,484.88501 L185.83639,419.049111 C185.83639,409.180611 188.90739,400.588806 195.04838,393.273712 C200.707397,386.372612 208.160385,381.576012 217.408386,378.88501 C221.893386,377.574013 226.379394,376.918007 230.865386,376.918007 C235.351394,376.918007 239.80239,377.574013 244.218391,378.88501 C253.604392,381.783013 260.884391,387.028214 266.060394,394.619408 C271.30529,387.028214 278.62049,381.783013 288.005889,378.88501 C292.491493,377.574013 296.942687,376.918007 301.35939,376.918007 C305.845088,376.918007 310.330692,377.574013 314.81639,378.88501 C324.063789,381.576012 331.516891,386.372612 337.17579,393.273712 C343.317689,400.588806 346.38869,409.180611 346.38869,419.049111 L346.38869,484.88501 Z M358.28906,484.88501 L358.28906,470.70341 L407.665988,470.70341 C413.048789,470.70341 417.845088,469.21961 422.054691,466.252211 C426.540389,463.008709 428.783191,459.04061 428.783191,454.34791 C428.783191,447.998909 425.677692,442.754109 419.466789,438.61351 C414.98109,435.646111 406.69989,432.161011 394.62309,428.158409 C382.89129,424.362911 374.71354,420.946808 370.08984,417.910408 C362.22266,412.734612 358.28906,406.144112 358.28906,398.138909 C358.28906,383.992012 366.915364,376.918007 384.167989,376.918007 L434.476592,376.918007 L434.476592,391.099808 L384.167989,391.099808 C378.92319,391.099808 375.50716,391.755409 373.91992,393.066612 C372.95378,393.894814 372.4707,395.58551 372.4707,398.138909 C372.4707,401.451409 374.88607,404.487908 379.71679,407.248307 C383.23629,409.180611 389.688791,411.66491 399.07419,414.701409 C412.876289,419.256111 422.641288,423.53471 428.36919,427.537312 C438.099593,434.300411 442.964889,443.23721 442.964889,454.34791 C442.964889,463.31921 439.203788,470.77241 431.681587,476.70728 C424.711589,482.1591 416.70639,484.88501 407.665988,484.88501 L358.28906,484.88501 Z M502.695388,467.701411 C503.730392,466.321209 507.733383,456.69421 514.703384,438.820511 L538.82239,376.918007 L554.14239,376.918007 L525.158386,451.035408 C516.808395,472.15261 509.492385,483.36678 503.212386,484.677979 C502.522384,484.816 501.798385,484.88501 501.039398,484.88501 C500.211395,484.88501 499.451385,484.816 498.761382,484.677979 C494.621391,483.78084 490.653388,479.98527 486.857391,473.29121 C483.959388,468.18451 479.818389,458.764611 474.435394,445.03151 L447.624992,376.918007 L463.048789,376.918007 L489.548393,444.720909 C495.138389,458.799111 498.485397,466.49371 499.589385,467.804911 C500.073394,468.42601 500.556396,468.736611 501.039398,468.736611 C501.591384,468.736611 502.143386,468.39151 502.695388,467.701411 Z M584.57039,501.55101 C592.43739,509.83231 602.3754,513.97291 614.38238,513.97291 C626.04538,513.97291 635.7764,510.073811 643.5744,502.27561 C651.30341,494.47746 655.1684,485.092041 655.1684,474.11941 L655.1684,430.849812 C655.1684,419.946213 651.30341,410.560807 643.5744,402.693611 C635.7764,394.964409 626.39038,391.099808 615.4184,391.099808 C604.44539,391.099808 595.06039,394.964409 587.26138,402.693611 C579.46339,410.491806 575.56439,419.877213 575.56439,430.849812 C575.56439,441.82251 579.46339,451.207909 587.26138,459.006109 C595.12939,466.80431 604.51439,470.70341 615.4184,470.70341 C627.97739,470.15131 638.84738,465.70011 648.02539,457.34981 L648.02539,474.22291 C640.77939,481.05493 629.9104,484.608968 615.4184,484.88501 C600.51138,484.88501 587.77939,479.60571 577.2204,469.04711 C566.66238,458.48851 561.38238,445.756111 561.38238,430.849812 C561.38238,415.943611 566.66238,403.211212 577.2204,392.652611 C587.77939,382.16301 600.51138,376.918007 615.4184,376.918007 C630.2554,376.918007 642.9534,382.16301 653.51138,392.652611 C664.0704,403.211212 669.3494,415.943611 669.3494,430.849812 L669.3494,474.11941 C669.3494,489.02563 664.0704,501.758009 653.51138,512.316611 C642.9534,522.87521 629.9104,528.154511 614.38238,528.154511 C602.92738,528.154511 592.98939,525.428608 584.57039,519.976811 L584.57039,501.55101 Z" id="path-2"></path>
        <filter x="-1.6%" y="-5.3%" width="103.3%" height="113.2%" filterUnits="objectBoundingBox" id="filter-3">
            <feOffset dx="0" dy="2" in="SourceAlpha" result="shadowOffsetOuter1"></feOffset>
            <feGaussianBlur stdDeviation="3" in="shadowOffsetOuter1" result="shadowBlurOuter1"></feGaussianBlur>
            <feComposite in="shadowBlurOuter1" in2="SourceAlpha" operator="out" result="shadowBlurOuter1"></feComposite>
            <feColorMatrix values="0 0 0 0 0   0 0 0 0 0   0 0 0 0 0  0 0 0 0.5 0" type="matrix" in="shadowBlurOuter1"></feColorMatrix>
        </filter>
    </defs>
    <g id="omsvg" stroke="none" stroke-width="1" fill="none" fill-rule="evenodd">
        <g>
            <g>
                <polygon id="orange_fill" fill="url(#linearGradient-1)" points="731.169653 634.629412 367.400405 844.463783 3.63029351 634.629412 3.63029351 214.850895 367.400405 5.01630036 731.169653 214.850895"></polygon>
                <path d="M427.700378,34.799999 L705.500398,195.2 L734.800388,212.10001 L734.800388,636.40002 L705.500398,653.29999 L424.300388,815.70001 L367.400398,848.5 L310.500398,815.70001 L29.299988,653.29999 L0,636.40002 L0,212.10001 L29.299988,195.2 L307.100378,34.799999 L367.400398,0 L427.700378,34.799999 Z M367.400398,838.34198 L725.106358,631.823 L725.106358,218.677 L367.400398,12.1577997 L9.69358843,218.677 L9.69358843,631.823 L367.400398,838.34198 Z" id="outer_hex" fill-opacity="0.3" fill="#72A4BD"></path>
                <g id="omsvg_text">
                    <use fill="black" fill-opacity="1" filter="url(#filter-3)" xlink:href="#path-2"></use>
                    <use fill-opacity="0.9" fill="#2A47D3" fill-rule="evenodd" xlink:href="#path-2"></use>
                </g>
            </g>
        </g>
    </g>
</svg>
